<?xml version="1.0" standalone="no"?>
<!DOCTYPE svg PUBLIC "-//W3C//DTD SVG 20010904//EN"
 "http://www.w3.org/TR/2001/REC-SVG-20010904/DTD/svg10.dtd">
<svg version="1.0" xmlns="http://www.w3.org/2000/svg"
 width="480.000000pt" height="480.000000pt" viewBox="0 0 480.000000 480.000000"
 preserveAspectRatio="xMidYMid meet">
<metadata>
Created by potrace 1.14, written by Peter Selinger 2001-2017
</metadata>
<g transform="translate(0.000000,480.000000) scale(0.100000,-0.100000)"
fill="#000000" stroke="none">
<path d="M2497 3634 c-1 -1 -33 -5 -70 -8 -38 -3 -73 -9 -80 -13 -6 -4 -28 -7
-48 -8 -21 -1 -43 -6 -51 -12 -21 -17 -81 -31 -126 -28 -22 1 -55 -4 -74 -12
-69 -31 -103 -48 -108 -54 -3 -3 -24 -18 -48 -33 -31 -19 -50 -25 -70 -20 -54
12 -157 11 -189 -2 -18 -7 -33 -10 -33 -7 0 3 -6 0 -13 -6 -8 -6 -17 -8 -20
-4 -4 3 -7 2 -7 -4 0 -10 -36 -26 -52 -24 -5 1 -8 -4 -8 -9 0 -6 -7 -10 -15
-10 -9 0 -28 -11 -42 -24 -14 -13 -37 -30 -52 -37 -14 -8 -40 -24 -57 -36 -17
-13 -36 -23 -42 -23 -7 0 -17 -9 -24 -20 -7 -11 -17 -20 -21 -20 -5 0 -14 -6
-21 -12 -7 -7 -30 -26 -51 -43 -20 -16 -58 -50 -84 -73 -36 -35 -41 -42 -22
-37 13 4 34 18 46 31 32 35 38 18 7 -18 -55 -61 -200 -150 -266 -162 -14 -3
-29 -7 -34 -10 -13 -8 -106 -23 -184 -30 -26 -3 -52 -7 -56 -10 -5 -3 -30 -6
-58 -7 -27 -2 -62 -11 -79 -21 -16 -10 -49 -27 -71 -38 -42 -20 -139 -113
-161 -153 -92 -173 -89 -352 7 -468 55 -67 170 -131 261 -144 68 -10 81 -9 59
5 -10 7 7 8 55 5 39 -3 87 -5 107 -5 l38 1 -2 -74 c-2 -61 2 -82 22 -122 27
-52 82 -103 119 -110 13 -2 24 -6 25 -7 25 -43 24 -56 -10 -104 -47 -66 -31
-111 43 -123 l35 -6 -45 -32 c-54 -38 -78 -71 -84 -118 -10 -73 56 -125 132
-104 28 8 39 19 59 61 14 29 23 55 21 59 -11 17 22 28 59 19 48 -11 50 -13 35
-42 -31 -55 -22 -127 18 -145 39 -19 114 -16 138 5 38 33 46 51 60 137 8 47
21 93 30 101 8 8 15 22 15 30 0 8 6 14 14 14 8 0 24 12 35 27 24 30 22 41 -21
127 -16 32 -27 60 -25 62 1 2 19 5 39 8 32 4 37 1 57 -35 31 -55 96 -104 166
-125 110 -33 156 -34 212 -6 l42 22 28 -41 c15 -23 46 -51 68 -63 22 -12 59
-35 81 -52 53 -38 174 -90 182 -78 4 5 32 11 63 12 52 3 57 1 74 -25 38 -58
116 -113 160 -113 13 0 27 -5 30 -10 4 -6 11 -8 16 -5 5 4 29 8 53 10 24 2 58
11 76 20 42 22 111 85 104 96 -3 5 -1 9 4 9 5 0 15 14 22 31 11 26 18 30 42
27 15 -3 28 -2 28 1 0 3 13 12 29 19 27 12 34 11 70 -12 22 -15 49 -26 60 -26
11 0 22 -4 25 -8 2 -4 31 -5 63 -2 51 5 63 10 97 44 58 59 84 133 81 231 -3
88 -7 113 -26 144 -27 41 -107 58 -168 34 -19 -7 -36 -12 -38 -10 -2 2 -5 22
-7 44 -4 37 -2 40 19 35 32 -6 74 35 81 79 9 52 -28 123 -99 194 l-60 60 44 8
c61 10 84 15 84 17 0 1 14 4 30 6 49 8 179 55 198 72 9 8 17 12 17 8 0 -4 10
2 22 14 12 11 27 20 34 20 6 0 15 7 18 16 8 21 24 9 41 -33 8 -20 23 -43 33
-52 10 -9 32 -36 49 -61 58 -86 195 -178 319 -216 72 -21 76 -22 141 -28 28
-3 55 -6 60 -7 14 -4 127 12 173 24 25 6 47 12 50 12 17 3 90 47 90 55 0 6 5
10 10 10 17 0 105 92 119 125 44 101 47 199 8 286 -42 95 -199 236 -282 255
-5 1 -39 9 -75 18 -36 8 -80 18 -99 21 -19 3 -38 8 -43 11 -4 3 -16 7 -27 9
-19 3 -145 87 -189 126 -14 12 -30 22 -36 23 -15 2 -66 41 -66 51 0 4 16 -3
35 -15 54 -33 42 -8 -20 41 -30 24 -54 48 -55 53 0 6 -9 19 -19 30 -11 12 -31
44 -46 71 -33 60 -118 172 -154 202 -14 12 -33 29 -41 37 -23 21 -149 83 -195
95 -22 6 -56 8 -75 4 -19 -3 -42 -6 -50 -8 -8 -1 -35 10 -61 25 -39 24 -81 42
-99 45 -3 0 -18 6 -35 12 -49 19 -176 45 -240 48 -33 2 -60 4 -60 5 0 2 -196
6 -198 4z m-813 -1229 c13 -16 41 -39 62 -51 22 -12 64 -35 94 -52 88 -49 172
-78 258 -89 23 -3 42 -8 42 -10 0 -3 -19 -40 -42 -83 l-42 -79 -35 54 c-20 30
-41 55 -48 55 -7 0 -13 4 -13 9 0 7 -50 33 -70 37 -3 0 -25 6 -50 13 -48 14
-133 9 -154 -9 -7 -5 -16 -7 -20 -2 -4 4 -12 -1 -17 -11 -10 -16 -39 -24 -39
-10 0 4 10 17 21 29 49 52 6 192 -64 209 -34 9 -33 12 18 68 l40 45 18 -47
c10 -25 29 -59 41 -76z"/>
</g>
</svg>
